<svg version="1" xmlns="http://www.w3.org/2000/svg" width="682.667" height="682.667" viewBox="0 0 512.000000 512.000000"><path d="M321.9 70.1c-19.9 4.7-37.1 20.8-43.8 41.1-1.5 4.4-4.4 5.8-12.6 5.8-10.5 0-31.8 3.8-46.3 8.2-3.6 1.1-5.7.1-6.7-3.3-1.1-3.5-8.2-13.3-12.7-17.6-5.2-5-14.7-9.9-21.9-11.4-6.8-1.3-21.8-1.3-28.6 0-17.5 3.5-34 19.5-38.7 37.6-3.5 13.1-1.3 28 6 41.2 1.9 3.4 3.4 6.6 3.4 7.2 0 1.5-6 8.1-7.4 8.1-.6 0-3.1-1.1-5.6-2.5-17.7-9.9-27.9-13.5-38.1-13.5-14.3 0-23.1 7.7-19.9 17.4.8 2.5 2.4 4 6.3 6.2l5.2 2.9 21-.2c12.4-.2 21.6.1 22.5.7 1.3.8 1.3 1.4-.4 4.2C85.5 232.8 79 262.6 84 292.4c1.9 11.7 2.7 14.3 7.8 27.6 9 23.7 36.5 52.8 56.5 60 4.9 1.7 4.4 3.6-2.6 10.6-7.7 7.5-12 15.6-14.4 26.7-1.2 6-1.4 11.7-.8 33.2l.7 26-5.7 14.5c-3.1 8-5.9 16-6.2 17.7l-.6 3.3h4.6c3.9 0 4.7-.3 5.2-2.3.7-2.4 10.6-26.6 13.6-33.4 1.1-2.3 1.9-4.6 1.9-5.1s.6-1.4 1.3-2c.7-.6 3-4.6 5.2-8.9 2.1-4.3 5-9.4 6.5-11.3 1.5-1.9 4-5.8 5.5-8.5 1.6-2.8 3.2-5.2 3.6-5.5.4-.3 2.4-2.9 4.4-5.9 4.1-5.9 10.7-13.2 20.3-22.5 10.1-9.7 12.7-11.1 24.6-13.1 5.9-1 11.1-2.4 11.7-3.1 1.4-1.7.8-5.5-1.1-6.5-.8-.4-7.8-1.2-15.5-1.8-15.7-1.1-31.7-3.5-38.5-5.5-2.5-.8-6.4-1.7-8.7-2-2.3-.3-5.4-1.2-7-2-1.5-.7-5-2.4-7.8-3.7-9.2-4.4-15-8.7-24.2-17.9-9.8-9.6-19.4-23.1-22.6-31.5-1-2.7-2.2-5.5-2.6-6-3.6-5.2-8-30.8-7.6-45 .5-21.1 4.9-35.4 17.1-56.3 3.8-6.4 6-9.2 7.4-9.2 5.1 0 35.1 36 33.5 40.2-.4.9-2.1 1.9-3.8 2.2-6.3 1.2-7.2 1.4-9 2.1-1.9.8-3.2 4.7-2.3 7.1.7 1.9 7.6 1.6 20.6-1.1 7.3-1.4 12.1-1.6 34-1 30.3.7 39.9 1.8 63.5 7.1 17.2 3.9 20.9 5 39 11.9 8.3 3.2 23.4 10.7 28.4 14.1 2 1.3 3.9 2.4 4.4 2.4 1 0 11.7 8.9 17.7 14.7 3.2 3 5.2 4.3 6.9 4.1 3.1-.4 4.6-2.8 3.7-6.2-.9-3.7-14.7-16.8-21.9-20.8-3.2-1.8-8.4-4.8-11.5-6.5-22-12.6-47.5-21-82.7-27.3-19.1-3.5-53-5.2-66.9-3.5-5.4.7-5.7.6-8.7-2.6-1.7-1.8-3.9-5-5-7-2.5-5-21.9-28.4-27.5-33.2-4.7-4.1-5.5-6.8-3-10.2 1.3-1.9 1.6-1.9 6.8-.2 7.3 2.3 10.5 2.2 11.3-.3 1.1-3.5-.3-5.4-7.8-10.4-12.1-8.2-17.6-18.8-17.9-34.1-.2-8 1.7-15.9 5.5-23.1 2.6-4.9 12.9-14.2 18.7-16.8 7.4-3.3 20.9-5.2 26.9-3.8 2.5.6 6.4 1.4 8.6 1.7 7.3 1.2 17.2 9 23 18.1 2.7 4.1 3.5 6.8 4.3 13.5.6 4.6.7 8.8.4 9.4-.9 1.4-.9 14.1 0 15.1 1.5 1.4 7.1.8 8.3-1 .7-.9 2-5.6 3-10.4 2-10.4 2.5-11.5 5.6-12.4 1.3-.3 5.6-1.6 9.4-2.8 10.5-3.2 38.5-6.3 41.3-4.6.5.3 1.2 3.8 1.6 7.8.8 8.6 4.1 18.5 6.7 19.8 4.6 2.5 6.9-2.3 4.8-9.8-2.2-7.4-1.8-25.6.5-31.7 6.7-17.1 16.1-26.5 33.6-33.6 4.9-1.9 6.7-2.1 17-1.6 12.2.5 19.1 2.5 27.5 7.9 4.2 2.8 11.9 10.3 13.9 13.6.6 1 1.9 3.1 3 4.6 3.6 5.1 7 18.4 7 27.6.1 7.1-.4 9.7-2.7 15.5-1.6 3.8-3.7 8.1-4.8 9.6-1 1.5-1.9 3.3-1.9 3.9 0 .7-1.1 2.3-2.5 3.6-1.8 1.6-2.5 3.4-2.5 5.8 0 4.8 2.6 6.2 7.5 4.2 1.9-.8 3.5-1.9 3.5-2.3 0-.4 2.3-3.2 5-6 2.8-2.9 5-5.7 5-6.3 0-1.7 3-1.1 3.7.7.6 1.7 2 3.6 7.3 9.1 10.4 10.9 24.4 39.7 26.4 54.2.4 2.5 1.5 7.2 2.6 10.5 2 6.5 4.7 33.2 3.6 36.2-.4.9-1.1 5.1-1.6 9.3-1.2 9.5-4.9 24-6.7 26.1-.7.8-1.3 2.4-1.3 3.5s-.9 2.5-2 3.2c-1.1.7-2 2.3-2 3.7 0 2.2-5.2 13-7 14.5-.3.3-2.1 2.5-4 5s-4.8 5.9-6.5 7.6c-1.6 1.7-5.4 5.6-8.4 8.7-2.9 3.1-6.2 5.7-7.2 5.7s-2.4 1.2-3.1 2.7c-1.7 3.5-17.2 11.3-29.8 14.8-5.2 1.5-11.3 3.3-13.5 4.1-9.1 3-21.6 5.6-30.9 6.5-5.5.5-10.6 1.5-11.3 2.1-.7.6-1.3 2.6-1.3 4.5 0 2.9.5 3.6 3.4 4.8 4.1 1.8 7.8 2 12.9 1 4.6-.9 4.9.7 1.2 6.5-3 4.8-3.1 6.1-.5 8.5 2.4 2.2 6.5 1.4 8.1-1.7 2.3-4.2 13.5-14.5 18.4-16.9 4-1.9 6.6-2.4 12.5-2.4 8.7.1 13.4 1.9 19.2 7.7 7.4 7.4 11.3 20.2 10.5 34-.8 13.2-5.2 40.6-8.6 53.3-.6 2.2-1.1 6.5-1.1 9.5s-.7 7.6-1.5 10.3l-1.4 4.7h11.6l.6-6.3c.7-6.3 3.7-23 6.2-34.7.8-3.6 1.9-9.9 2.5-14 .6-4.1 1.6-10.2 2.1-13.5 2.9-19.2-1-34.8-11.9-48.3-1.9-2.4-5.2-5.5-7.3-6.9-5.3-3.5-5-5.7.9-8.7 13.8-7.1 32.4-23.5 43.7-38.7 14.1-18.8 23.6-44.1 26-68.9.6-6.5 0-13.8-2.9-34.5-2.4-17.2-11.9-44-20-56.5-8.2-12.8-12.3-18.2-19.8-26.3l-8.1-8.9.2-11.2c.4-19.8-5.1-34-18.4-47.2-8.6-8.7-13.8-11.8-25.9-15.9-6.2-2.1-9.2-2.5-18.3-2.4-5.9.1-12.4.5-14.4 1zM82.6 180.9c6.6 2.1 11.4 5 11.4 7 0 1.2-19 2.5-27.6 1.9-5.5-.3-7-.8-8.5-2.7-2.8-3.5-2.3-5 2.4-7.2 5.2-2.4 12-2.1 22.3 1zM176 391.5c.7.8 2.5 1.5 4 1.5 6 0 5.3 2.1-4.1 12-4.9 5.2-8.9 9.9-8.9 10.3 0 .4-1.9 2.9-4.3 5.5s-5.1 6-6.1 7.7c-1 1.6-2.9 4.1-4.1 5.5-1.3 1.4-3.3 4.5-4.6 7-5.1 10.1-5.3 10.1-7.3-3-2-12.6-1.8-15.1 1.7-26 2.5-7.8 8.4-15.3 13.6-17.3 2-.9 4.3-2.2 5-3.1 1.8-2.2 13.3-2.2 15.1-.1z"/><path d="M305 94.9c-4.3 3.7-5.2 11.1-2.1 17.2 2.1 4 2.2 4.7 1 10.7-1.5 8.4-.7 15.4 2.7 22.6 5.7 12.1 13.5 16.8 27.9 17 10.3.1 15.7-1.9 21.9-8.3 6.7-7 7.9-10.4 8.4-22.8.3-9.4.7-11.5 2.3-12.9 2.1-1.9 2.5-6.9.7-8.1-.7-.4-11.5-.6-23.9-.4-30.3.4-34.4-.8-32-9 2.3-7.5-1.3-10.7-6.9-6zM153.5 119.8c-4.3 1.5-10.1 5.2-12.6 7.9-4.2 4.7-4.8 5.7-6.4 11.8-1.6 6.4-.8 16.2 2 21.4 2 4 9.4 10.9 14.1 13.1 7.3 3.6 20.6 2 28.4-3.2 1.8-1.3 5.2-5 7.4-8.3 4-5.8 4.1-6.2 4.1-14.5 0-7.5-.4-9.2-3-14.4-2.4-4.7-4.3-6.8-9-10-5.7-3.9-6.3-4.1-14.5-4.3-4.7-.1-9.4.1-10.5.5zM196.3 209.2c-5 2.4-3.3 9.9 3.5 15.7 4.8 4.1 7.8 4.9 11.3 3.1 2.6-1.5 2.4-4.9-.7-11.3-3.7-7.6-8.6-10.2-14.1-7.5zM248.5 213.9c-4.8 2.2-10.3 7.6-11.2 11-.4 1.8 0 2.9 1.8 4.4 3 2.4 8 1.9 16.1-1.7 7.1-3.1 9.3-6.5 7.3-11.2-1.9-4.7-7.2-5.6-14-2.5zM81.6 339.5c-1.1 3.1-.6 6 2.2 11.4 3.3 6.7 14.7 18.5 22.6 23.5 7.9 5.1 10 5.8 12.1 4.2 1.6-1.2 1.2-1.8-4.6-6.5-10.4-8.6-22.3-21.2-26-27.5-3.7-6.4-5.3-7.6-6.3-5.1zM85 370.7c0 1.7 1.3 3.8 3.8 6.2 3.9 3.7 13.3 9.1 15.8 9.1 2.1 0 1.7-3.8-.7-5.8-4.6-3.7-11.2-9.4-12.6-10.8-.8-.8-2.5-1.4-3.9-1.4-1.9 0-2.4.5-2.4 2.7zM402 397.5c-1 1.3-1 2.3.5 5.8.9 2.3 2.1 5.3 2.6 6.5.5 1.3 1.4 9.4 2 18 1.1 18.1 1.4 19.2 4 19.2 3.3 0 4.2-4.5 4.3-20 0-13.9-.1-14.7-2.8-20-5.4-10.4-8-12.7-10.6-9.5zM321.8 454.7c-2.5 2.9-4.8 15.6-6.3 35.3-.8 10.2-1.5 19.3-1.5 20.2 0 1.5.9 1.8 5.8 1.8h5.9l.7-15.9c.3-8.7 1.3-18.4 2.1-21.5 2-7.7 2-18-.1-20-2-2.1-4.7-2-6.6.1z"/></svg>